<svg xmlns="http://www.w3.org/2000/svg" viewBox="0 0 64 64">
  <defs>
    <linearGradient id="greenGradient" x1="0" y1="0" x2="1" y2="1">
      <stop offset="0%" stop-color="#8EEA4A"/>
      <stop offset="100%" stop-color="#B4FC75"/>
    </linearGradient>
  </defs>

  <path
    d="M32 4C17.1 4 5 16.1 5 31c0 5.8 1.9 11.1 5 15.4L7.5 60l13.9-4.1c3.3 1.3 6.9 2.1 10.6 2.1 14.9 0 27-12.1 27-27S46.9 4 32 4Z"
    fill="url(#greenGradient)"
    stroke="#000000"
    stroke-width="2"
  />

  <rect
    x="19"
    y="18"
    width="18"
    height="24"
    rx="4"
    fill="#FFFFFF"
    stroke="#000000"
    stroke-width="1.5"
  />

  <rect
    x="38"
    y="22"
    width="5"
    height="18"
    rx="2.5"
    fill="#DDFED0"
    stroke="#000000"
    stroke-width="1"
  />

  <circle cx="23.5" cy="24.5" r="1.5" fill="#4A7A2A" stroke="#000000" stroke-width="0.8"/>

  <rect x="26.5" y="23.5" width="8" height="2" rx="1" fill="#4A7A2A" stroke="#000000" stroke-width="0.8"/>
  <rect x="22" y="28.5" width="12.5" height="2" rx="1" fill="#4A7A2A" stroke="#000000" stroke-width="0.8"/>
  <rect x="22" y="33.5" width="12.5" height="2" rx="1" fill="#4A7A2A" stroke="#000000" stroke-width="0.8"/>
</svg>
