<?xml version="1.0" encoding="UTF-8"?>
<svg xmlns="http://www.w3.org/2000/svg"
     viewBox="0 0 24 24"
     width="24"
     height="24">
  <path d="M19.14 8.87a8.28 8.28 0 0 1 1.53 4.8c0 4.6-3.74 8.33-8.34 8.33S4 18.26 4 13.67c0-4.32 3.3-7.88 7.5-8.3v-1.7h-0.83a0.83 0.83 0 0 1 0-1.67H14a0.83 0.83 0 0 1 0 1.67h-0.83v1.7a8.27 8.27 0 0 1 3.95 1.5l1.29-1.3a0.83 0.83 0 0 1 1.18 0l0.83 0.84a0.83 0.83 0 0 1 0 1.18l-1.28 1.28ZM12.34 7a6.67 6.67 0 0 0-6.67 6.67 6.67 6.67 0 0 0 6.66 6.66A6.67 6.67 0 0 0 19 13.67 6.67 6.67 0 0 0 12.33 7Zm0 8.33a1.67 1.67 0 0 1-1.67-1.66c0-0.15 0.02-0.3 0.06-0.43l-1.89-1.89a0.83 0.83 0 1 1 1.18-1.18l1.89 1.9c0.13-0.04 0.27-0.07 0.42-0.07 0.92 0 1.67 0.75 1.67 1.67s-0.75 1.66-1.67 1.66Z" fill="@color/systemfeedback_info_icon" fill-rule="evenodd"/>
</svg>