<?xml version="1.0" encoding="UTF-8"?>
<svg xmlns="http://www.w3.org/2000/svg"
     viewBox="0 0 24 24"
     width="24"
     height="24">
  <path d="M20.3333,22H16.1667C15.7058,22 15.3333,21.6267 15.3333,21.1667V2.8333C15.3333,2.3733 15.7058,2 16.1667,2H20.3333C20.7942,2 21.1667,2.3733 21.1667,2.8333V21.1667C21.1667,21.6267 20.7942,22 20.3333,22ZM19.5,3.6667H17V20.3333H19.5V3.6667ZM13.6667,22H9.5C9.0392,22 8.6667,21.6267 8.6667,21.1667V12.8333C8.6667,12.3733 9.0392,12 9.5,12H13.6667C14.1275,12 14.5,12.3733 14.5,12.8333V21.1667C14.5,21.6267 14.1275,22 13.6667,22ZM12.8333,13.6667H10.3333V20.3333H12.8333V13.6667ZM7,22H2.8333C2.3725,22 2,21.6267 2,21.1667V8.6667C2,8.2067 2.3725,7.8333 2.8333,7.8333H7C7.4608,7.8333 7.8333,8.2067 7.8333,8.6667V21.1667C7.8333,21.6267 7.4608,22 7,22ZM6.1667,9.5H3.6667V20.3333H6.1667V9.5Z" fill="@color/shield_text_color" fill-rule="evenodd"/>
</svg>