<?xml version="1.0" encoding="UTF-8"?>
<svg xmlns="http://www.w3.org/2000/svg"
     viewBox="0 0 24 24"
     width="24"
     height="24">
  <path d="M1.3137,10.8429C1.4836,11.3947 1.8233,14.589 2.841,15.5102C3.8906,16.4585 7.8497,16.4436 8.6076,16.0334C10.3041,15.1137 10.9918,12.1428 11.2919,10.8421C11.4611,10.1055 11.9991,10.1055 11.9991,10.1055C11.9991,10.1055 12.5691,10.1055 12.739,10.8413C13.039,12.1428 13.6963,15.1221 15.3913,16.0403C16.15,16.4521 20.109,16.4669 21.16,15.5187C22.1763,14.5974 22.5154,11.3939 22.6852,10.8413C22.8536,10.2895 23.7029,9.7369 23.8721,9.5529C24.0426,9.369 24.0426,8.6324 23.8721,8.4477C23.5331,8.0798 19.5308,7.7519 15.2214,8.2638C14.3615,8.3661 14.0346,8.6317 11.9984,8.6317C9.9637,8.6317 9.6353,8.3654 8.7761,8.2638C4.4695,7.7527 0.4666,8.0806 0.1269,8.4485C-0.0423,8.6324 -0.0423,9.3698 0.1269,9.5537C0.2967,9.7376 1.1446,10.2903 1.3137,10.8429Z" fill="#495057" fill-rule="evenodd"/>
</svg>