<?xml version="1.0" encoding="UTF-8"?>
<svg xmlns="http://www.w3.org/2000/svg"
     viewBox="0 0 24 24"
     width="24"
     height="24">
  <path d="M20.3844,1.8461H4.0774C3.3805,1.8461 2.8461,2.3388 2.8461,2.9098V20.3075C2.8461,20.8173 2.4329,21.2306 1.9231,21.2306C1.4133,21.2306 1,20.8173 1,20.3075V2.9098C1,1.2842 2.3929,0 4.0774,0H20.5473C21.4719,0 22.2306,0.7389 22.2306,1.6644V17.8211C22.2306,18.3309 21.8173,18.7441 21.3075,18.7441C20.7977,18.7441 20.3844,18.3309 20.3844,17.8211V1.8461Z" fill="#495057"/>
  <path d="M22.2306,22.1536C22.7404,22.1536 23.1536,22.5669 23.1536,23.0767C23.1536,23.5865 22.7404,23.9998 22.2306,23.9998H4.7438C2.6788,23.9998 1,22.351 1,20.3075C1,18.2627 2.6785,16.6152 4.7438,16.6152H22.2306C22.7404,16.6152 23.1536,17.0285 23.1536,17.5383C23.1536,18.0481 22.7404,18.4614 22.2306,18.4614H4.7438C3.6906,18.4614 2.8461,19.2899 2.8461,20.3075C2.8461,21.3236 3.6908,22.1536 4.7438,22.1536H22.2306Z" fill="#495057"/>
  <path d="M21.6577,22.8267C21.7958,23.3175 21.5099,23.8272 21.0191,23.9653C20.5284,24.1033 20.0186,23.8174 19.8806,23.3267C19.3216,21.3397 19.3216,19.2771 19.8805,17.2885C20.0185,16.7977 20.5282,16.5117 21.0189,16.6497C21.5097,16.7876 21.7957,17.2973 21.6578,17.788C21.1907,19.4499 21.1907,21.1666 21.6577,22.8267Z" fill="#495057"/>
  <path d="M14.846,0.9231C14.846,0.4133 15.2593,0 15.7691,0C16.2789,0 16.6922,0.4133 16.6922,0.9231V10.1537C16.6922,10.933 15.7861,11.3617 15.1836,10.8674L12.0768,8.3187L8.97,10.8674C8.3675,11.3617 7.4615,10.933 7.4615,10.1537V0.9231C7.4615,0.4133 7.8748,0 8.3845,0C8.8943,0 9.3076,0.4133 9.3076,0.9231V8.2026L11.4914,6.4111C11.8317,6.1319 12.3219,6.1319 12.6623,6.4111L14.846,8.2026V0.9231Z" fill="#495057"/>
</svg>