<?xml version="1.0" encoding="UTF-8"?>
<svg xmlns="http://www.w3.org/2000/svg"
     viewBox="0 0 24 24"
     width="24"
     height="24">
  <path d="M20.46 19.7a0.77 0.77 0 0 1-0.77 0.76h-8.46a0.77 0.77 0 0 1-0.77-0.77v-2.3h2.3a2.31 2.31 0 0 0 2.32-2.31V8.15h4.61a0.77 0.77 0 0 1 0.77 0.77zM3.54 15.07V4.3A0.77 0.77 0 0 1 4.3 3.54h8.46a0.77 0.77 0 0 1 0.77 0.77v10.77a0.77 0.77 0 0 1-0.77 0.77H4.3a0.77 0.77 0 0 1-0.77-0.77m16.15-8.46h-4.61V4.3A2.31 2.31 0 0 0 12.77 2H4.3A2.31 2.31 0 0 0 2 4.3v10.78a2.31 2.31 0 0 0 2.3 2.3h4.62v2.31A2.31 2.31 0 0 0 11.23 22h8.46A2.31 2.31 0 0 0 22 19.7V8.91a2.31 2.31 0 0 0-2.3-2.3" fill="@color/shield_text_color" fill-rule="evenodd"/>
</svg>