<?xml version="1.0" encoding="UTF-8"?>
<svg xmlns="http://www.w3.org/2000/svg"
     viewBox="0 0 237 199"
     width="237"
     height="199">
  <path d="M22.8,26.6c-8,0 -14.5,6.5 -14.5,14.5l0,0v114.8c0,8 6.5,14.5 14.4,14.5l0,0h27.7L162.2,26.6H22.8z" fill="#000000"/>
  <path d="M110.7,170.3H216c8,0 14.5,-6.5 14.5,-14.5l0,0V50.6L110.7,170.3z" fill="#000000"/>
  <path d="M0,77.5V57c0,-2.3 1.9,-4.2 4.2,-4.2l0,0h20.5c2.3,0 4.2,1.9 4.2,4.2l0,0v20.5c0,2.3 -1.9,4.2 -4.2,4.2l0,0H4.2C1.9,81.7 0,79.8 0,77.5L0,77.5zM8.3,61.2v12.2h12.2V61.2H8.3z" fill="#FFFFFF"/>
  <path d="M192.9,136.1l-5.3,-5.3l5.3,-5.3c1.4,-1.7 1.1,-4.2 -0.6,-5.6c-1.5,-1.2 -3.6,-1.2 -5,0l-5.2,5.2l-5.3,-5.3c-1.7,-1.4 -4.2,-1.1 -5.6,0.6c-1.2,1.5 -1.2,3.5 0,5l5.3,5.3l-5.3,5.3c-1.4,1.7 -1.1,4.2 0.6,5.6c1.5,1.2 3.6,1.2 5,0l5.3,-5.3l5.3,5.3c1.7,1.4 4.2,1.2 5.6,-0.6C194.1,139.7 194.1,137.6 192.9,136.1L192.9,136.1z" fill="#FFFFFF"/>
  <path d="M221.5,111.3c-8.5,0 -15.5,-7 -15.4,-15.5s7,-15.5 15.5,-15.4c8.5,0 15.4,6.9 15.4,15.5C237,104.4 230.1,111.4 221.5,111.3zM221.5,88.5c-4.1,0 -7.4,3.3 -7.4,7.4s3.3,7.4 7.4,7.4s7.4,-3.3 7.4,-7.4l0,0C228.9,91.8 225.6,88.5 221.5,88.5z" fill="#FFFFFF"/>
  <path d="M42.8,130.4c-8.5,0 -15.5,-6.9 -15.5,-15.5c0,-8.5 6.9,-15.5 15.5,-15.5c8.5,0 15.5,6.9 15.5,15.5l0,0C58.2,123.5 51.3,130.4 42.8,130.4zM42.8,107.6c-4.1,0 -7.4,3.3 -7.4,7.4c0,4.1 3.3,7.4 7.4,7.4s7.4,-3.3 7.4,-7.4l0,0C50.1,110.9 46.8,107.6 42.8,107.6z" fill="#FFFFFF"/>
  <path d="M166.3,176c0.1,-1.2 0.1,-2.4 0,-3.5V25.9c-0.7,5.7 -4.8,11.4 -12.4,15.7c-16.7,9.7 -43.9,9.7 -60.6,0C85.4,37 81.2,31.1 80.8,25.1l0,0v151h0.1c0.7,5.7 4.9,11.3 12.4,15.6c16.7,9.7 43.9,9.7 60.6,0C161.4,187.3 165.5,181.8 166.3,176L166.3,176L166.3,176z" fill="#000000"/>
  <path d="M80.6,24.8a42.9,24.8 0,1 0,85.8 0a42.9,24.8 0,1 0,-85.8 0z" fill="#7383FC"/>
  <path d="M80.6,24.8a42.9,24.8 0,1 0,85.8 0a42.9,24.8 0,1 0,-85.8 0z" fill="#000000"/>
  <path d="M96.8,22.9a26.7,15.4 0,1 0,53.4 0a26.7,15.4 0,1 0,-53.4 0z" fill="#9A999E"/>
  <path d="M96.8,22.9a26.7,15.4 0,1 0,53.4 0a26.7,15.4 0,1 0,-53.4 0z" fill="#A78AFE"/>
  <path d="M96.8,20a26.7,15.4 0,1 0,53.4 0a26.7,15.4 0,1 0,-53.4 0z" fill="#D3D3D8"/>
  <path d="M96.8,20a26.7,15.4 0,1 0,53.4 0a26.7,15.4 0,1 0,-53.4 0z" fill="#D9CDFE"/>
  <path d="M112,14.8a11.5,6.6 0,1 0,23 0a11.5,6.6 0,1 0,-23 0z" fill="#DBDAE1"/>
  <path d="M112,14.8a11.5,6.6 0,1 0,23 0a11.5,6.6 0,1 0,-23 0z" fill="#000000"/>
  <path d="M131.7,19.5c-4.5,2.6 -11.8,2.6 -16.3,0c-2.2,-1.3 -3.4,-3 -3.4,-4.7l0,0v4.7c0,1.7 1.1,3.4 3.4,4.7c4.5,2.6 11.8,2.6 16.3,0c2.1,-1.2 3.2,-2.7 3.3,-4.3l0,0v-5.2C135,16.5 133.9,18.2 131.7,19.5z" fill="#000000"/>
  <path d="M91.4,47.1c11.3,6.5 27.4,8.6 41.8,6.3v53.1v83.1c-14.4,2.3 -30.4,-0.5 -41.7,-7h-0.6v-0.3v-69.2V46.8C91,46.9 91.2,47 91.4,47.1z" fill="#D4D5D5"/>
  <path d="M90.9,149.7v32.5c0.6,0.4 1.3,0.8 2,1.2c10.9,6.3 26.3,8.5 40.3,6.6v-48.1c-14,-1.9 -29.4,0.3 -40.3,6.6C92.2,148.8 91.5,149.3 90.9,149.7z" fill="#FFFFFF"/>
  <path d="M90.9,141.7v32.5c0.6,0.4 1.3,0.8 2,1.2c10.9,6.3 26.3,8.5 40.3,6.6v-48.1c-14,-1.9 -29.4,0.3 -40.3,6.6C92.2,140.9 91.5,141.3 90.9,141.7z" fill="#000000"/>
  <path d="M90.9,138.2v32.5c0.6,0.4 1.3,0.8 2,1.2c10.9,6.3 26.3,8.5 40.3,6.6v-48.1c-14,-1.9 -29.4,0.3 -40.3,6.6C92.2,137.4 91.5,137.8 90.9,138.2z" fill="#FFFFFF"/>
  <path d="M90.9,124.3v32.5c0.6,0.4 1.3,0.8 2,1.2c10.9,6.3 26.3,8.5 40.3,6.6v-48.1c-14,-1.9 -29.4,0.3 -40.3,6.6C92.2,123.5 91.5,123.9 90.9,124.3z" fill="#000000"/>
  <path d="M90.9,120.8v32.5c0.6,0.4 1.3,0.8 2,1.2c10.9,6.3 26.3,8.5 40.3,6.6V113c-14,-1.9 -29.4,0.3 -40.3,6.6C92.2,120 91.5,120.4 90.9,120.8z" fill="#FFFFFF"/>
  <path d="M92.9,105.7c-0.7,0.4 -1.3,0.8 -2,1.2v6.1v26.4c0.6,0.4 1.3,0.8 2,1.2c10.9,6.3 26.3,8.5 40.3,6.6v-40.8v-7.3C119.2,97.2 103.8,99.4 92.9,105.7z" fill="#000000"/>
  <path d="M92.9,102.2c-0.7,0.4 -1.3,0.8 -2,1.2v9.6v22.9c0.6,0.4 1.3,0.8 2,1.2c10.9,6.3 26.3,8.5 40.3,6.6v-37.3V95.6C119.2,93.7 103.8,95.9 92.9,102.2z" fill="#FFFFFF"/>
  <path d="M92.9,88.3c-0.7,0.4 -1.3,0.8 -2,1.2v23.6v9c0.6,0.4 1.3,0.8 2,1.2c10.9,6.3 26.3,8.5 40.3,6.6v-23.4V81.8C119.2,79.8 103.8,82 92.9,88.3z" fill="#000000"/>
  <path d="M92.9,84.9c-0.7,0.4 -1.3,0.8 -2,1.2v27v5.6c0.6,0.4 1.3,0.8 2,1.2c10.9,6.3 26.3,8.5 40.3,6.6v-20V78.3C119.2,76.4 103.8,78.6 92.9,84.9z" fill="#FFFFFF"/>
  <path d="M92.9,73c-0.7,0.4 -1.3,0.8 -2,1.2v32.5c0.6,0.4 1.3,0.8 2,1.2c10.9,6.3 26.3,8.5 40.3,6.6v-8.1v-40C119.2,64.5 103.8,66.7 92.9,73z" fill="#000000"/>
  <path d="M92.9,69.6c-0.7,0.4 -1.3,0.8 -2,1.2v32.5c0.6,0.4 1.3,0.8 2,1.2c10.9,6.3 26.3,8.5 40.3,6.6v-4.7V63C119.2,61.1 103.8,63.3 92.9,69.6z" fill="#FFFFFF"/>
  <path d="M109.2,53.2c-6,1.2 -11.6,3.2 -16.4,5.9c-0.7,0.4 -1.3,0.8 -2,1.2v32.5c0.6,0.4 1.3,0.8 2,1.2c10.9,6.3 26.3,8.5 40.3,6.6v-8.1V53.4C125.3,54.7 117,54.6 109.2,53.2z" fill="#000000"/>
  <path d="M102.2,51.6c-3.3,1.1 -6.5,2.4 -9.3,4.1c-0.7,0.4 -1.3,0.8 -2,1.2v32.5c0.6,0.4 1.3,0.8 2,1.2c10.9,6.3 26.3,8.5 40.3,6.6V53.4C122.9,55 111.8,54.4 102.2,51.6z" fill="#FFFFFF"/>
  <path d="M97.4,49.9c-1.6,0.7 -3.1,1.4 -4.5,2.3c-0.7,0.4 -1.3,0.8 -2,1.2v15.2c0.6,0.4 1.3,0.8 2,1.2c10.9,6.3 26.3,8.5 40.3,6.6v-23C121.2,55.3 108,54.2 97.4,49.9z" fill="#F4F1F1"/>
  <path d="M91.4,47.1c-0.2,-0.1 -0.3,-0.2 -0.5,-0.3v28.8c0.6,0.4 1.3,0.8 2,1.2c10.9,6.3 26.3,8.5 40.3,6.6v-8.1V53.4C118.8,55.7 102.7,53.6 91.4,47.1z" fill="#000000"/>
  <path d="M91.4,47.1c-0.2,-0.1 -0.3,-0.2 -0.5,-0.3v25.3c0.6,0.4 1.3,0.8 2,1.2c10.9,6.3 26.3,8.5 40.3,6.6V53.4C118.8,55.7 102.7,53.6 91.4,47.1z" fill="#FFFFFF"/>
  <path d="M91.4,47.1c-0.2,-0.1 -0.3,-0.2 -0.5,-0.3v7.9c0.6,0.4 1.3,0.8 2,1.2c10.9,6.3 26.3,8.5 40.3,6.6v-9.1C118.8,55.7 102.7,53.6 91.4,47.1z" fill="#000000"/>
  <path d="M91.4,47.1c-0.2,-0.1 -0.3,-0.2 -0.5,-0.3v4.4c0.6,0.4 1.3,0.8 2,1.2c10.9,6.3 26.3,8.5 40.3,6.6v-5.6C118.8,55.7 102.7,53.6 91.4,47.1z" fill="#FFFFFF"/>
  <path d="M93.7,117.6V51.3c0.2,0.1 0.3,0.2 0.5,0.3c10.6,6.1 25.4,8.4 39,6.7v-4.9c-14.4,2.3 -30.5,0.2 -41.8,-6.3c-0.2,-0.1 -0.3,-0.2 -0.5,-0.3v66.3v69.2v0.3h0.6c0.7,0.4 1.4,0.8 2.2,1.2C93.7,183.8 93.7,117.6 93.7,117.6z" fill="#000000"/>
</svg>