<?xml version="1.0" encoding="UTF-8"?>
<svg xmlns="http://www.w3.org/2000/svg"
     viewBox="0 0 24 24"
     width="24"
     height="24">
  <path d="M20.56 20H3.44A1.45 1.45 0 0 1 2 18.54v-2.7C2 15.36 2.37 15 2.83 15V6.44C2.83 5.64 3.5 5 4.31 5h15.38c0.81 0 1.48 0.64 1.48 1.44V15c0.46 0 0.83 0.37 0.83 0.83v2.71c0 0.8-0.65 1.46-1.44 1.46ZM19.5 6.67h-15V15h5.05c0.46 0 0.84 0.37 0.84 0.83h3.22c0-0.46 0.37-0.83 0.84-0.83h5.05V6.67Zm0.83 10h-5c0 0.46-0.37 0.83-0.83 0.83h-5a0.83 0.83 0 0 1-0.83-0.83h-5v1.66h16.66v-1.66Z" fill="#FF62757E" fill-rule="evenodd"/>
</svg>