<?xml version="1.0" encoding="UTF-8"?>
<svg xmlns="http://www.w3.org/2000/svg"
     viewBox="0 0 24 24"
     width="24"
     height="24">
  <path d="M8.25 2.3c-0.8 0-1.45 0.65-1.45 1.45v16.5c0 0.8 0.65 1.45 1.45 1.45h7.5c0.8 0 1.45-0.65 1.45-1.45V3.75c0-0.8-0.65-1.45-1.45-1.45H14.3V3a0.8 0.8 0 0 1-0.8 0.8h-3A0.8 0.8 0 0 1 9.7 3V2.3H8.25Zm7.5-1.6h-7.5A3.05 3.05 0 0 0 5.2 3.75v16.5a3.05 3.05 0 0 0 3.05 3.05h7.5a3.05 3.05 0 0 0 3.05-3.05V3.75a3.05 3.05 0 0 0-3.05-3.05ZM10.5 19.45a0.8 0.8 0 1 0 0 1.6h3a0.8 0.8 0 0 0 0-1.6h-3Z" fill="#FF62757E" fill-rule="evenodd"/>
</svg>