<?xml version="1.0" encoding="UTF-8"?>
<svg xmlns="http://www.w3.org/2000/svg"
     viewBox="0 0 24 24"
     width="24"
     height="24">
  <path d="M12,15.6C13.988,15.6 15.6,13.988 15.6,12C15.6,10.012 13.988,8.4 12,8.4V15.6Z" fill="@color/menu_icon_color"/>
  <path d="M12,3C7.029,3 3,7.029 3,12C3,16.971 7.029,21 12,21C16.971,21 21,16.971 21,12C21,7.029 16.971,3 12,3ZM12,4.8V8.4C10.012,8.4 8.4,10.012 8.4,12C8.4,13.988 10.012,15.6 12,15.6V19.2C15.976,19.2 19.2,15.976 19.2,12C19.2,8.024 15.976,4.8 12,4.8Z" fill="@color/menu_icon_color" fill-rule="evenodd"/>
</svg>