<?xml version="1.0" encoding="UTF-8"?>
<svg xmlns="http://www.w3.org/2000/svg"
     viewBox="0 0 24 24"
     width="24"
     height="24">
  <path d="M3.7 4.5a3.05 3.05 0 0 1 3.05-3.05h10.5A3.05 3.05 0 0 1 20.3 4.5v15a3.05 3.05 0 0 1-3.05 3.05H6.75A3.05 3.05 0 0 1 3.7 19.5v-15Zm3.05-1.45C5.95 3.05 5.3 3.7 5.3 4.5v15c0 0.8 0.65 1.45 1.45 1.45h10.5c0.8 0 1.45-0.65 1.45-1.45v-15c0-0.8-0.65-1.45-1.45-1.45H6.75ZM9.7 19.5a0.8 0.8 0 0 1 0.8-0.8h3a0.8 0.8 0 1 1 0 1.6h-3a0.8 0.8 0 0 1-0.8-0.8Z" fill="#FF62757E" fill-rule="evenodd"/>
</svg>