<?xml version="1.0" encoding="UTF-8"?>
<svg xmlns="http://www.w3.org/2000/svg"
     viewBox="0 0 24 24"
     width="24"
     height="24">
  <path d="M2.2 5.46A3.25 3.25 0 0 1 5.45 2.2h2.46a3.25 3.25 0 0 1 3.25 3.25v2.46a3.25 3.25 0 0 1-3.25 3.25H5.45A3.25 3.25 0 0 1 2.2 7.91zM5.45 3.8C4.54 3.8 3.8 4.54 3.8 5.46V7.9c0 0.91 0.74 1.65 1.66 1.65H7.9c0.91 0 1.65-0.74 1.65-1.65V5.45c0-0.9-0.74-1.65-1.65-1.65z m7.39 1.66a3.25 3.25 0 0 1 3.25-3.26h2.46a3.25 3.25 0 0 1 3.25 3.25v2.46a3.25 3.25 0 0 1-3.25 3.25h-2.46a3.25 3.25 0 0 1-3.25-3.25z m3.25-1.66c-0.91 0-1.65 0.74-1.65 1.66V7.9c0 0.91 0.74 1.65 1.65 1.65h2.46c0.9 0 1.65-0.74 1.65-1.65V5.45c0-0.9-0.74-1.65-1.65-1.65zM2.2 16.09a3.25 3.25 0 0 1 3.25-3.25h2.46a3.25 3.25 0 0 1 3.25 3.25v2.46a3.25 3.25 0 0 1-3.25 3.25H5.45a3.25 3.25 0 0 1-3.25-3.25z m3.25-1.65c-0.9 0-1.65 0.74-1.65 1.65v2.46c0 0.9 0.74 1.65 1.65 1.65h2.46c0.91 0 1.65-0.74 1.65-1.65v-2.46c0-0.91-0.74-1.65-1.65-1.65z m11.87-1.6a0.8 0.8 0 0 1 0.8 0.8v2.88H21a0.8 0.8 0 1 1 0 1.6h-2.88V21a0.8 0.8 0 1 1-1.6 0v-2.88h-2.88a0.8 0.8 0 0 1 0-1.6h2.88v-2.88a0.8 0.8 0 0 1 0.8-0.8" fill="#FF62757E" fill-rule="evenodd"/>
</svg>