<?xml version="1.0" encoding="UTF-8"?>
<svg xmlns="http://www.w3.org/2000/svg"
     viewBox="0 0 263 167"
     width="263"
     height="167">
  <path d="M67.08,71.25L183.58,71.25A14.75,14.75 0,0 1,198.33 86L198.33,151.39A14.75,14.75 0,0 1,183.58 166.14L67.08,166.14A14.75,14.75 0,0 1,52.33 151.39L52.33,86A14.75,14.75 0,0 1,67.08 71.25z" fill="#6261FF"/>
  <path d="M157.37,118.6C157.37,110.14 164.23,103.28 172.69,103.28H191.52C199.98,103.28 206.84,110.14 206.84,118.6V118.6C206.84,127.06 199.98,133.92 191.52,133.92H172.69C164.23,133.92 157.37,127.06 157.37,118.6V118.6Z" fill="#160066"/>
  <path d="M163.63,118.57a7.53,7.52 0,1 0,15.07 0a7.53,7.52 0,1 0,-15.07 0z" fill="#E4DFFF"/>
  <path d="M148.67,109.24C148.21,107.96 147.76,106.67 147.31,105.38C147.26,105.23 147.27,105.07 147.32,104.93C147.66,104.08 148.01,103.23 148.37,102.37C148.41,102.3 148.43,102.22 148.41,102.15C148.4,102.07 148.36,102 148.3,101.95C147.16,100.8 146.06,99.63 144.91,98.5C144.28,97.87 143.44,97.63 142.58,97.51C141.47,97.4 140.34,97.46 139.26,97.71C139.19,97.72 139.12,97.72 139.06,97.7C138.99,97.68 138.93,97.65 138.88,97.61C137.42,95.99 135.97,94.36 134.52,92.72C134.49,92.68 134.46,92.63 134.45,92.58H118.15C117.46,93.37 116.77,94.17 116.08,94.96C115.34,95.8 114.57,96.62 113.85,97.47C113.76,97.58 113.65,97.66 113.52,97.7C113.39,97.75 113.25,97.75 113.12,97.72C112.29,97.58 111.44,97.51 110.59,97.49C109.67,97.45 108.75,97.72 108,98.25C107.52,98.64 107.07,99.07 106.65,99.52C106.36,99.81 106.11,100.07 105.84,100.35L104.35,101.9C104.26,101.96 104.2,102.05 104.18,102.16C104.16,102.26 104.17,102.37 104.22,102.46C104.57,103.25 104.9,104.05 105.21,104.86C105.28,105.06 105.29,105.28 105.23,105.48C104.8,106.73 104.34,107.98 103.91,109.24C103.83,109.46 103.82,109.7 103.86,109.93C104.74,113.28 105.63,116.63 106.51,119.98C107,121.84 107.49,123.71 107.99,125.56C108.42,127.2 108.85,128.83 109.29,130.46C109.36,130.74 109.45,131.05 109.54,131.34C109.86,132.49 110.37,133.59 111.05,134.58C111.21,134.81 111.39,135.02 111.57,135.23C112.04,135.75 112.56,136.22 113.12,136.64C113.41,136.86 113.69,137.06 114,137.27C114.04,137.3 114.08,137.32 114.13,137.35C114.16,137.38 114.2,137.41 114.24,137.43L114.9,137.88C114.96,137.92 115.03,137.96 115.09,138.01C116.91,139.24 118.73,140.46 120.56,141.69L122.64,143.1L122.89,143.27L123.12,143.43C123.14,143.44 123.17,143.46 123.19,143.47C123.8,143.87 124.41,144.25 125.04,144.63C125.31,144.81 125.62,144.93 125.95,144.98C126.28,145.03 126.61,145.01 126.93,144.91C127.14,144.84 127.35,144.75 127.54,144.63C127.6,144.59 127.66,144.56 127.72,144.52C128.36,144.11 129,143.71 129.63,143.3L129.85,143.16L129.95,143.09L129.99,143.07C130.59,142.68 131.19,142.28 131.78,141.88C131.82,141.86 131.86,141.83 131.9,141.81L132.05,141.71L132.13,141.65C133.01,141.07 133.87,140.48 134.74,139.89C136.23,138.88 137.71,137.86 139.2,136.84C141.22,135.46 142.45,133.53 143.07,131.19C143.62,129.13 144.17,127.07 144.72,125.01C144.81,124.65 144.91,124.3 145,123.94C146.23,119.3 147.47,114.66 148.71,110.02C148.78,109.76 148.77,109.49 148.67,109.24V109.24ZM133.14,129.19C132.66,129.57 132.16,129.93 131.68,130.32C130.14,131.52 128.61,132.72 127.09,133.93C126.44,134.45 126.15,134.47 125.51,133.96C123.48,132.39 121.46,130.81 119.45,129.22C118.94,128.82 118.96,128.47 119.55,128.16C121.51,127.13 123.46,126.05 125.58,125.36C125.81,125.29 126.04,125.23 126.3,125.16C126.67,125.28 127.06,125.39 127.44,125.52C129.44,126.23 131.28,127.26 133.14,128.24C133.59,128.49 133.58,128.84 133.14,129.2V129.19ZM142.88,111.78C141.04,113.68 139.22,115.6 137.38,117.5C137.09,117.76 136.9,118.11 136.83,118.49C136.76,118.86 136.81,119.25 136.99,119.6C137.24,120.17 137.45,120.76 137.63,121.36C137.76,121.82 137.79,122.31 137.72,122.78C137.64,123.26 137.46,123.71 137.19,124.11C136.62,124.95 135.97,125.71 135,126.13C134.63,126.29 134.21,126.31 133.83,126.17C131.33,125.35 129.09,123.89 127.35,121.94C126.65,121.15 126.65,120.77 127.5,120.14C128.47,119.41 129.51,118.78 130.52,118.11C131.09,117.73 131.66,117.35 132.23,116.95C132.8,116.55 132.9,116.24 132.6,115.62C132.2,114.76 131.69,113.93 131.26,113.08C130.97,112.5 130.71,111.89 130.49,111.27C130.39,111 130.38,110.71 130.47,110.45C130.55,110.18 130.74,109.95 130.98,109.81C131.59,109.41 132.24,109.07 132.92,108.8C134.6,108.14 136.29,107.53 137.97,106.9C138.1,106.85 138.21,106.79 138.33,106.73V106.59C138.04,106.55 137.74,106.48 137.44,106.46C136.34,106.37 135.24,106.29 134.14,106.21C132.96,106.11 131.86,106.49 130.76,106.8C130.26,106.94 129.77,107.08 129.29,107.26C128.72,107.47 128.53,107.8 128.64,108.39C128.88,109.72 129.15,111.05 129.39,112.38C129.58,113.49 129.76,114.61 129.93,115.74C130.03,116.41 129.84,116.68 129.17,116.83C128.37,117.05 127.56,117.22 126.74,117.33C126.09,117.35 125.44,117.28 124.8,117.15C124.29,117.07 123.79,116.94 123.29,116.82C122.79,116.69 122.57,116.47 122.63,115.97C122.74,114.96 122.89,113.96 123.07,112.97C123.33,111.48 123.65,110.01 123.92,108.52C124.03,107.91 124.06,107.47 123.17,107.22C121.95,106.83 120.72,106.51 119.46,106.26C118.57,106.11 117.63,106.26 116.71,106.3C116.1,106.33 115.48,106.42 114.86,106.49C114.66,106.51 114.46,106.56 114.26,106.6C114.26,106.63 114.25,106.66 114.24,106.69C114.39,106.78 114.55,106.86 114.71,106.92C116.48,107.59 118.27,108.25 120.04,108.93C120.53,109.11 120.99,109.35 121.42,109.63C122.14,110.1 122.36,110.66 122.05,111.46C121.74,112.25 121.28,113.08 120.88,113.88C120.59,114.42 120.28,114.93 120.02,115.48C119.74,116.15 119.78,116.56 120.36,116.94C121.25,117.54 122.16,118.11 123.05,118.72C123.75,119.18 124.43,119.66 125.11,120.13C125.17,120.17 125.22,120.21 125.27,120.26C125.84,120.8 125.88,121.15 125.35,121.73C124.8,122.35 124.2,122.94 123.57,123.49C122.19,124.71 120.55,125.49 118.83,126.14C118.6,126.23 118.35,126.27 118.11,126.25C117.86,126.23 117.62,126.16 117.41,126.04C116.78,125.73 116.23,125.28 115.79,124.74C115.36,124.19 115.04,123.56 114.88,122.88C114.65,121.94 114.97,121.04 115.32,120.16C115.42,119.94 115.51,119.7 115.61,119.47C115.76,119.18 115.81,118.85 115.76,118.53C115.71,118.21 115.56,117.91 115.32,117.67C114.42,116.7 113.51,115.74 112.6,114.78C111.61,113.73 110.61,112.69 109.6,111.67C109.25,111.3 109.02,110.83 108.95,110.32C108.87,109.82 108.96,109.3 109.19,108.85C110.06,107.32 111.05,105.86 112.15,104.48C112.93,103.44 113.77,102.44 114.56,101.41C114.63,101.29 114.75,101.21 114.88,101.16C115.01,101.12 115.15,101.11 115.29,101.16C116.93,101.46 118.57,101.79 120.23,102C120.8,102.08 121.45,101.87 122.04,101.71C122.9,101.47 123.75,101.16 124.59,100.88C125.93,100.44 127.25,100.6 128.58,101.04C129.57,101.41 130.59,101.72 131.63,101.96C132.25,102.04 132.88,102 133.49,101.86C134.83,101.65 136.16,101.39 137.49,101.16C137.56,101.15 137.63,101.15 137.7,101.17C137.78,101.19 137.84,101.23 137.9,101.27C139.73,103.53 141.57,105.79 143.08,108.26C143.17,108.41 143.24,108.56 143.34,108.71C143.99,109.79 143.65,110.97 142.88,111.78Z" fill="#160066"/>
  <path d="M133.14,129.19C132.66,129.58 132.16,129.94 131.68,130.32C130.14,131.52 128.61,132.73 127.09,133.94C126.44,134.46 126.15,134.47 125.51,133.97C123.48,132.39 121.46,130.81 119.44,129.23C118.93,128.83 118.95,128.47 119.54,128.17C121.5,127.14 123.44,126.06 125.57,125.37C125.8,125.29 126.03,125.24 126.29,125.16C126.66,125.28 127.04,125.39 127.43,125.53C129.43,126.24 131.27,127.27 133.13,128.25C133.59,128.49 133.58,128.84 133.14,129.19Z" fill="#F0F0F4"/>
  <path d="M137.4,117.49C137.11,117.75 136.92,118.09 136.85,118.47C136.77,118.85 136.83,119.24 137.01,119.58C137.26,120.16 137.47,120.75 137.64,121.35C137.78,121.81 137.81,122.29 137.73,122.77C137.66,123.24 137.48,123.69 137.2,124.09C136.63,124.94 135.99,125.69 135.02,126.11C134.65,126.28 134.23,126.3 133.84,126.16C131.35,125.33 129.11,123.87 127.36,121.92C126.67,121.14 126.67,120.75 127.51,120.12C128.49,119.39 129.53,118.77 130.54,118.1C131.11,117.71 131.68,117.34 132.25,116.94C132.82,116.53 132.91,116.22 132.62,115.61C132.21,114.74 131.71,113.91 131.28,113.07C130.98,112.48 130.72,111.87 130.51,111.25C130.4,110.99 130.4,110.7 130.49,110.44C130.57,110.17 130.75,109.95 130.99,109.8C131.61,109.4 132.26,109.07 132.94,108.79C134.61,108.13 136.31,107.52 137.99,106.89C138.11,106.85 138.23,106.78 138.35,106.72V106.59C138.06,106.54 137.75,106.47 137.45,106.45C136.35,106.36 135.25,106.29 134.15,106.2C132.97,106.11 131.87,106.48 130.78,106.79C130.28,106.93 129.79,107.08 129.3,107.25C128.73,107.46 128.54,107.79 128.65,108.38C128.9,109.71 129.16,111.04 129.4,112.38C129.59,113.48 129.77,114.6 129.94,115.73C130.05,116.41 129.86,116.68 129.18,116.83C128.39,117.05 127.58,117.21 126.76,117.32C126.11,117.34 125.45,117.28 124.82,117.14C124.31,117.07 123.81,116.93 123.31,116.81C122.8,116.69 122.59,116.47 122.65,115.96C122.76,114.96 122.91,113.96 123.08,112.96C123.35,111.48 123.67,110 123.94,108.51C124.04,107.9 124.07,107.47 123.18,107.22C121.97,106.83 120.73,106.5 119.48,106.25C118.59,106.11 117.65,106.25 116.73,106.29C116.11,106.33 115.5,106.41 114.88,106.48C114.68,106.51 114.48,106.56 114.28,106.59C114.28,106.62 114.27,106.66 114.26,106.69C114.41,106.77 114.56,106.85 114.72,106.92C116.5,107.59 118.29,108.24 120.06,108.92C120.54,109.11 121,109.34 121.43,109.62C122.15,110.09 122.37,110.66 122.07,111.45C121.76,112.25 121.29,113.07 120.89,113.87C120.61,114.41 120.29,114.93 120.04,115.47C119.75,116.15 119.8,116.55 120.37,116.93C121.27,117.53 122.17,118.11 123.07,118.71C123.76,119.17 124.44,119.65 125.13,120.12C125.18,120.16 125.24,120.21 125.28,120.26C125.85,120.8 125.9,121.14 125.37,121.72C124.81,122.34 124.22,122.93 123.59,123.48C122.21,124.7 120.56,125.48 118.85,126.13C118.62,126.22 118.37,126.26 118.12,126.24C117.88,126.23 117.64,126.16 117.42,126.04C116.79,125.72 116.24,125.28 115.8,124.73C115.36,124.19 115.05,123.55 114.88,122.88C114.65,121.93 114.97,121.03 115.33,120.16C115.42,119.93 115.51,119.69 115.61,119.47C115.76,119.17 115.81,118.84 115.76,118.52C115.71,118.2 115.56,117.9 115.33,117.67C114.43,116.69 113.51,115.73 112.6,114.77C111.61,113.72 110.61,112.69 109.61,111.66C109.25,111.29 109.03,110.82 108.95,110.32C108.88,109.81 108.96,109.29 109.19,108.84C110.07,107.31 111.05,105.85 112.15,104.47C112.93,103.44 113.77,102.43 114.56,101.4C114.64,101.29 114.75,101.2 114.88,101.15C115.01,101.11 115.15,101.11 115.29,101.15C116.93,101.45 118.57,101.78 120.23,102C120.8,102.07 121.45,101.86 122.04,101.7C122.9,101.46 123.75,101.15 124.59,100.88C125.94,100.43 127.25,100.59 128.58,101.04C129.57,101.41 130.59,101.71 131.63,101.96C132.25,102.03 132.88,102 133.5,101.85C134.83,101.64 136.16,101.38 137.49,101.15C137.56,101.14 137.63,101.15 137.71,101.17C137.78,101.19 137.84,101.22 137.9,101.27C139.73,103.53 141.57,105.79 143.08,108.25C143.17,108.4 143.24,108.56 143.34,108.7C144.02,109.82 143.68,111 142.91,111.81C141.04,113.67 139.22,115.58 137.4,117.49Z" fill="#F0F0F4"/>
  <path d="M229.57,141.44L228.25,143.81C228.17,143.96 228.02,144.07 227.84,144.11L225.14,144.65C224.67,144.74 224.49,145.33 224.83,145.67L226.69,147.53C226.82,147.66 226.88,147.84 226.86,148.02L226.59,150.78C226.54,151.24 227.01,151.59 227.44,151.4L229.88,150.31C230.06,150.23 230.26,150.24 230.43,150.33L232.72,151.61C233.16,151.86 233.7,151.47 233.61,150.97L233.08,148.05C233.04,147.85 233.11,147.65 233.25,147.51L235.08,145.67C235.43,145.33 235.25,144.74 234.77,144.65L232.11,144.11C231.91,144.07 231.75,143.95 231.67,143.76L230.66,141.49C230.45,141.03 229.81,141 229.57,141.44Z" fill="#FF525E"/>
  <path d="M16.72,90.32L16.04,91.55C15.95,91.7 15.8,91.81 15.63,91.85L14.2,92.13C13.72,92.23 13.54,92.82 13.89,93.16L14.85,94.13C14.98,94.26 15.05,94.44 15.03,94.62L14.88,96.11C14.83,96.57 15.31,96.92 15.73,96.73L17.04,96.15C17.21,96.07 17.41,96.08 17.58,96.17L18.73,96.81C19.17,97.06 19.71,96.67 19.62,96.17L19.34,94.64C19.31,94.45 19.37,94.25 19.51,94.11L20.46,93.16C20.8,92.82 20.62,92.23 20.15,92.13L18.75,91.85C18.56,91.82 18.39,91.69 18.31,91.5L17.81,90.37C17.6,89.91 16.96,89.88 16.72,90.32Z" fill="#FF525E"/>
  <path d="M0,89.25a1.63,1.64 0,1 0,3.27 0a1.63,1.64 0,1 0,-3.27 0z" fill="#FFE08D"/>
  <path d="M4.09,85.16a0.82,0.82 0,1 0,1.64 0a0.82,0.82 0,1 0,-1.64 0z" fill="#FF525E"/>
  <path d="M10.63,125.65a3.68,3.68 0,1 0,7.36 0a3.68,3.68 0,1 0,-7.36 0z" fill="#FFE08D"/>
  <path d="M19.63,126.06a1.63,1.64 0,1 0,3.27 0a1.63,1.64 0,1 0,-3.27 0z" fill="#FF525E"/>
  <path d="M238.74,150.59a1.63,1.64 0,1 0,3.27 0a1.63,1.64 0,1 0,-3.27 0z" fill="#FFE08D"/>
  <path d="M251.83,141.19a3.68,3.68 0,1 0,7.36 0a3.68,3.68 0,1 0,-7.36 0z" fill="#FFE08D"/>
  <path d="M244.47,156.32a0.82,0.82 0,1 0,1.64 0a0.82,0.82 0,1 0,-1.64 0z" fill="#FF525E"/>
  <path d="M145.59,25.55L108,32.26C102.32,33.28 98.76,38.98 100.35,44.53L108.02,71.38H166.07L156.77,32.85C155.56,27.84 150.66,24.64 145.59,25.55Z" fill="#6261FF"/>
  <path d="M93.14,63.92L97.79,71.34H159.93L145.03,41.51C142.81,37.07 137.6,35.01 132.95,36.73L98.02,49.6C92.21,51.74 89.85,58.68 93.14,63.92Z" fill="#ffffff"/>
</svg>