<svg xmlns="http://www.w3.org/2000/svg" width="120" height="28" fill="none">
    <svg
        xmlns="http://www.w3.org/2000/svg"
        x="0"
        y="0"
        width="28"
        height="28"
        viewBox="0 0 512 512"
    >
        <path
            d="
                M110 0
                H402
                A110 110 0 0 1 512 110
                V402
                A110 110 0 0 1 402 512
                H110
                A110 110 0 0 1 0 402
                V110
                A110 110 0 0 1 110 0
                Z
            "
            fill="#000000"
        />

        <path
            d="
                M120 170
                L120 358
                L170 358
                L170 283
                L232 358
                L289 358
                L204 272
                L289 170
                L232 170
                L170 240
                L170 170
                Z
            "
            fill="#FFFFFF"
        />

        <path
            d="
                M314 272
                L314 358
                L334 358
                L334 272
                Z
                M314 242
                L314 256
                L334 256
                L334 242
                Z
            "
            fill="#FFFFFF"
        />

        <path
            d="
                M350 272
                L350 358
                L370 358
                L370 272
                Z
            "
            fill="#FFFFFF"
        />

        <path
            d="
                M390 272
                L449 272
                L449 358
                L390 358
                Z
            "
            fill="#FFFFFF"
        />
    </svg>

    <path fill="#1B1B1F" d="m47.032 9.498-3.227 11.034h-3.007l-2.012-7.708-2.012 7.708h-3.027L30.5 9.498h2.828l1.952 8.405 2.112-8.405h2.948l2.071 8.385 1.952-8.385zM47.127 14.975q0-1.672.657-2.968.678-1.295 1.813-1.991a4.9 4.9 0 0 1 2.569-.698q1.234 0 2.151.498.936.498 1.494 1.255V9.498h2.809v11.034H55.81V18.92q-.537.777-1.494 1.295-.936.498-2.17.498-1.395 0-2.55-.717-1.135-.717-1.813-2.012-.657-1.315-.657-3.008m8.684.04q0-1.016-.398-1.733a2.73 2.73 0 0 0-1.076-1.115 2.8 2.8 0 0 0-1.454-.399q-.777 0-1.434.379-.657.378-1.076 1.115-.398.718-.398 1.713t.398 1.753q.42.737 1.076 1.135.677.399 1.434.399.777 0 1.454-.379.678-.398 1.076-1.115.398-.737.398-1.753M63.434 5.793v14.74h-2.788V5.792zM68.28 5.793v14.74h-2.788V5.792zM80.597 14.776q0 .597-.08 1.076H72.45q.1 1.194.837 1.872.737.677 1.812.677 1.554 0 2.211-1.334h3.008q-.479 1.593-1.833 2.629-1.354 1.016-3.326 1.016-1.593 0-2.868-.697a5.13 5.13 0 0 1-1.972-2.012q-.697-1.295-.697-2.988 0-1.712.697-3.008a4.87 4.87 0 0 1 1.952-1.991q1.256-.698 2.888-.698 1.574 0 2.808.678a4.67 4.67 0 0 1 1.933 1.932q.696 1.234.697 2.848m-2.888-.797q-.021-1.075-.777-1.713-.757-.657-1.853-.657-1.035 0-1.752.637-.697.618-.857 1.733zM85.182 11.788v5.338q0 .558.259.817.277.24.916.24h1.294v2.35H85.9q-3.525 0-3.526-3.427v-5.318H81.06v-2.29h1.314V6.769h2.809v2.729h2.47v2.29z"/>
</svg>
