<?xml version="1.0" encoding="UTF-8"?>
<svg xmlns="http://www.w3.org/2000/svg"
     viewBox="0 0 96 96"
     width="96"
     height="96">
  <path d="M48,0L48,0A48,48 0,0 1,96 48L96,48A48,48 0,0 1,48 96L48,96A48,48 0,0 1,0 48L0,48A48,48 0,0 1,48 0z" fill="#000000"/>
  <path d="M28.209,25.755V32.009C28.209,33.114 29.105,34.009 30.209,34.009H36.177" fill="#00000000"/>
  <path d="M56.24,57.34L48.228,49.327C47.853,48.952 47.642,48.443 47.642,47.913V32.977" fill="#00000000"/>
  <path d="M24,48C24,61.255 34.745,72 48,72C61.255,72 72,61.255 72,48C72,34.745 61.255,24 48,24C40.506,24 33.814,27.435 29.413,32.816" fill="#00000000"/>
</svg>