<?xml version="1.0" encoding="UTF-8"?>
<svg xmlns="http://www.w3.org/2000/svg"
     viewBox="0 0 312 292"
     width="312"
     height="292">
  <path d="M0,16C0,7.16 7.16,0 16,0H296C304.84,0 312,7.16 312,16V276C312,284.84 304.84,292 296,292H16C7.16,292 0,284.84 0,276V16Z" fill="#30393D"/>
  <path d="M42,29V20.88L40.42,21.24V20.15L42.59,19.2H43.54V29H42Z" fill="#546771"/>
  <path d="M45.34,29V27.94C45.97,27.43 46.58,26.92 47.16,26.41C47.74,25.9 48.25,25.39 48.7,24.9C49.15,24.39 49.51,23.9 49.78,23.43C50.04,22.94 50.17,22.48 50.17,22.03C50.17,21.73 50.12,21.45 50.01,21.19C49.91,20.92 49.74,20.7 49.51,20.54C49.28,20.38 48.96,20.29 48.57,20.29C47.98,20.29 47.54,20.48 47.24,20.85C46.95,21.23 46.81,21.67 46.82,22.2H45.38C45.39,21.51 45.53,20.93 45.81,20.46C46.1,19.99 46.49,19.64 46.96,19.4C47.45,19.15 47.99,19.03 48.6,19.03C49.52,19.03 50.26,19.29 50.81,19.82C51.37,20.33 51.65,21.05 51.65,21.97C51.65,22.52 51.52,23.07 51.24,23.61C50.98,24.15 50.64,24.67 50.21,25.18C49.79,25.67 49.34,26.14 48.85,26.58C48.37,27.02 47.9,27.41 47.47,27.77H51.94V29H45.34Z" fill="#546771"/>
  <path d="M54.08,29.08C53.8,29.08 53.56,29 53.38,28.82C53.2,28.63 53.11,28.41 53.11,28.16C53.11,27.9 53.2,27.68 53.38,27.5C53.56,27.32 53.8,27.22 54.08,27.22C54.36,27.22 54.59,27.32 54.76,27.5C54.94,27.68 55.03,27.9 55.03,28.16C55.03,28.41 54.94,28.63 54.76,28.82C54.59,29 54.36,29.08 54.08,29.08ZM54.08,23.75C53.8,23.75 53.56,23.66 53.38,23.48C53.2,23.3 53.11,23.08 53.11,22.83C53.11,22.56 53.2,22.35 53.38,22.17C53.56,21.98 53.8,21.89 54.08,21.89C54.36,21.89 54.59,21.98 54.76,22.17C54.94,22.35 55.03,22.56 55.03,22.83C55.03,23.08 54.94,23.3 54.76,23.48C54.59,23.66 54.36,23.75 54.08,23.75Z" fill="#546771"/>
  <path d="M59.76,29.17C59.12,29.17 58.54,29.06 58.02,28.83C57.51,28.6 57.1,28.25 56.79,27.78C56.48,27.32 56.32,26.73 56.3,26.03H57.77C57.79,26.55 57.96,27 58.3,27.36C58.65,27.72 59.13,27.89 59.76,27.89C60.35,27.89 60.81,27.73 61.13,27.4C61.45,27.07 61.6,26.65 61.6,26.16C61.6,25.56 61.39,25.12 60.96,24.83C60.54,24.54 60.02,24.39 59.41,24.39H58.68V23.16H59.42C59.97,23.16 60.41,23.03 60.75,22.77C61.1,22.51 61.27,22.14 61.27,21.66C61.27,21.26 61.13,20.94 60.86,20.68C60.6,20.43 60.23,20.31 59.74,20.31C59.24,20.31 58.84,20.46 58.55,20.75C58.26,21.04 58.1,21.41 58.08,21.85H56.61C56.63,21.28 56.77,20.78 57.03,20.36C57.3,19.94 57.67,19.62 58.13,19.38C58.6,19.15 59.14,19.03 59.74,19.03C60.4,19.03 60.94,19.15 61.38,19.38C61.83,19.61 62.16,19.91 62.39,20.31C62.62,20.69 62.74,21.11 62.74,21.57C62.74,22.09 62.59,22.55 62.3,22.94C62.02,23.33 61.63,23.59 61.14,23.72C61.7,23.84 62.16,24.12 62.53,24.55C62.89,24.97 63.07,25.51 63.07,26.19C63.07,26.73 62.95,27.23 62.7,27.68C62.44,28.13 62.07,28.49 61.58,28.76C61.08,29.03 60.48,29.17 59.76,29.17Z" fill="#546771"/>
  <path d="M68.83,29.17C67.94,29.17 67.17,28.96 66.53,28.54C65.9,28.11 65.41,27.52 65.06,26.76C64.72,25.99 64.56,25.11 64.56,24.1C64.56,23.09 64.72,22.21 65.06,21.45C65.41,20.69 65.9,20.1 66.53,19.68C67.17,19.25 67.94,19.03 68.83,19.03C69.71,19.03 70.47,19.25 71.11,19.68C71.74,20.1 72.23,20.69 72.56,21.45C72.91,22.21 73.08,23.09 73.08,24.1C73.08,25.11 72.91,25.99 72.56,26.76C72.23,27.52 71.74,28.11 71.11,28.54C70.47,28.96 69.71,29.17 68.83,29.17ZM68.83,27.84C69.36,27.84 69.83,27.69 70.24,27.39C70.66,27.09 70.99,26.66 71.22,26.1C71.45,25.54 71.57,24.87 71.57,24.1C71.57,23.33 71.45,22.66 71.22,22.1C70.99,21.54 70.66,21.11 70.24,20.81C69.83,20.51 69.36,20.36 68.83,20.36C68.28,20.36 67.81,20.51 67.4,20.81C66.99,21.11 66.67,21.54 66.43,22.1C66.2,22.66 66.08,23.33 66.08,24.1C66.08,24.87 66.2,25.54 66.43,26.1C66.67,26.66 66.99,27.09 67.4,27.39C67.81,27.69 68.28,27.84 68.83,27.84Z" fill="#546771"/>
  <path d="M235.73,20.22C236.04,20.43 236.08,20.86 235.85,21.14L229.68,28.84C229.16,29.5 228.17,29.5 227.64,28.84L221.48,21.14C221.24,20.86 221.29,20.43 221.6,20.22C222.67,19.48 225.21,18 228.66,18C232.11,18 234.65,19.48 235.73,20.22Z" fill="#546771"/>
  <path d="M270.66,19.67C270.66,19.11 270.22,18.67 269.66,18.67H268.66V17.33H264.66V18.67H263.66C263.11,18.67 262.66,19.11 262.66,19.67V29.67C262.66,30.22 263.11,30.67 263.66,30.67H269.66C270.22,30.67 270.66,30.22 270.66,29.67V19.67Z" fill="#546771"/>
  <path d="M251.52,18.47C251.95,18.05 252.66,18.35 252.66,18.94V29.33C252.66,30.07 252.07,30.67 251.33,30.67H240.94C240.35,30.67 240.05,29.95 240.47,29.53L251.52,18.47Z" fill="#546771"/>
  <path d="M30.7,79.17L42.17,79.17C42.63,79.17 43,79.54 43,80C43,80.46 42.63,80.83 42.17,80.83L30.7,80.83L36.36,86.05C36.7,86.37 36.72,86.89 36.4,87.23C36.09,87.57 35.56,87.59 35.23,87.28L28.45,81.02C27.85,80.47 27.85,79.53 28.45,78.98L35.23,72.72C35.56,72.41 36.09,72.43 36.4,72.77C36.72,73.11 36.7,73.63 36.36,73.95L30.7,79.17Z" fill="#546771" fill-rule="evenodd"/>
  <path d="M121,283L191,283A1,1 0,0 1,192 284L192,284A1,1 0,0 1,191 285L121,285A1,1 0,0 1,120 284L120,284A1,1 0,0 1,121 283z" fill="#546771"/>
</svg>