<svg fill="none" xmlns="http://www.w3.org/2000/svg" viewBox="0 0 138 114">
  <g clip-path="url(#a)">
    <rect x=".5" y=".5" width="137" height="113" rx="7.5" fill="#1E1E2F" stroke="#3A3A50"/>
    <path d="M139.198 55.8543c.89-2.6076 1.38-5.4022 1.38-8.3124 0-14.1953-11.508-25.6984-25.699-25.6984-14.191 0-25.6982 11.5075-25.6982 25.6984 0 3.689.7832 7.1911 2.1805 10.3639-9.5051 3.7691-16.2334 13.0427-16.2334 23.8917 0 12.9849 9.6297 23.7135 22.134 25.4495 6.2341 8.281 16.1441 13.634 27.3051 13.634 18.863 0 34.153-15.29 34.153-34.153 0-13.6302-7.983-25.3913-19.526-30.8692l.004-.0045Z" fill="#2E2E40"/>
    <path d="M124.571 121.215c-10.889 0-20.901-4.975-27.4869-13.657-12.7135-1.833-22.2853-12.8824-22.2853-25.7605 0-10.6265 6.3189-20.0381 16.1266-24.0742-1.375-3.2306-2.0737-6.6526-2.0737-10.1814 0-14.3555 11.6763-26.0321 26.0323-26.0321 14.355 0 26.032 11.6766 26.032 26.0321 0 2.7678-.441 5.5045-1.304 8.1389 11.828 5.7404 19.451 17.8932 19.451 31.0427 0 19.0195-15.473 34.4875-34.487 34.4875l-.005.004Zm-9.692-99.0377c-13.986 0-25.3642 11.3784-25.3642 25.3646 0 3.5466.7253 6.9908 2.1537 10.2259l.138.316-.3204.129c-9.732 3.8581-16.0242 13.1184-16.0242 23.5802 0 12.5889 9.3938 23.389 21.8491 25.115l.138.018.0845.111c6.4565 8.58 16.3135 13.502 27.0375 13.502 18.65 0 33.82-15.175 33.82-33.8199 0-12.9938-7.592-24.9953-19.335-30.5711l-.267-.129.098-.2803c.903-2.6478 1.361-5.4067 1.361-8.2013 0-13.9861-11.378-25.3646-25.364-25.3646l-.005.0045Z" fill="#4A4A6A"/>
    <path d="M116.076 44.9609h-.667V176.715h.667V44.9609Z" fill="#4A4A6A"/>
    <path d="M31.621 118.75h-9.3939c-1.909 0-3.4575-1.549-3.4575-3.458V80.5426c0-4.4989 3.6533-8.1567 8.1567-8.1567 4.4989 0 8.1567 3.6534 8.1567 8.1567v34.7494c0 1.909-1.5486 3.458-3.4576 3.458h-.0044Z" fill="#3A3A50"/>
    <rect x="9" y="28" width="10" height="10" rx="2" fill="#383860"/>
    <rect x="21" y="28" width="10" height="10" rx="2" fill="#383860"/>
    <rect x="33" y="28" width="10" height="10" rx="2" fill="#383860"/>
    <rect x="45" y="28" width="10" height="10" rx="2" fill="#383860"/>
    <rect x="57" y="28" width="10" height="10" rx="2" fill="#383860"/>
    <rect x="69" y="28" width="10" height="10" rx="2" fill="#383860"/>
    <circle cx="69" cy="65.5" r="26.5" fill="#1E1E2F" stroke="#4A4A6A"/>
    <path fill-rule="evenodd" clip-rule="evenodd" d="M69.0002 82.1666c-9.1903 0-16.6667-7.4763-16.6667-16.6666 0-9.1903 7.4764-16.6667 16.6667-16.6667 9.1902 0 16.6666 7.4764 16.6666 16.6667 0 9.1903-7.4764 16.6666-16.6666 16.6666Zm0-30.5555c-7.6584 0-13.8889 6.2305-13.8889 13.8889 0 7.6583 6.2305 13.8889 13.8889 13.8889 7.6583 0 13.8889-6.2306 13.8889-13.8889 0-7.6584-6.2306-13.8889-13.8889-13.8889Z" fill="#8888AA"/>
  </g>
  <defs>
    <clipPath id="a">
      <rect width="138" height="114" rx="8" fill="#1E1E2F"/>
    </clipPath>
  </defs>
</svg>
