<svg fill="none" xmlns="http://www.w3.org/2000/svg" viewBox="0 0 138 114">
  <g clip-path="url(#a)">
    <!-- 背景 -->
    <rect x=".5" y=".5" width="137" height="113" rx="8" fill="#111114" stroke="#909094"/>
    
    <!-- 装饰形状 -->
    <circle cx="30" cy="30" r="8" fill="#251491" opacity="0.3"/>
    <rect x="90" y="10" width="15" height="15" fill="#251491" opacity="0.2" rx="3"/>
    <circle cx="100" cy="80" r="6" fill="#251491" opacity="0.25"/>
    
    <!-- 左侧按钮 -->
    <rect x="9" y="28" width="10" height="10" rx="2" fill="#251491"/>
    <rect x="21" y="28" width="10" height="10" rx="2" fill="#251491"/>
    <rect x="33" y="28" width="10" height="10" rx="2" fill="#251491"/>
    <rect x="45" y="28" width="10" height="10" rx="2" fill="#251491"/>
    <rect x="57" y="28" width="10" height="10" rx="2" fill="#251491"/>
    <rect x="69" y="28" width="10" height="10" rx="2" fill="#251491"/>
    
    <!-- 右侧矩形组件 -->
    <rect x="101" y="28" width="28" height="10" rx="2" fill="#251491"/>
    <rect x="101" y="46" width="28" height="35" rx="2" fill="#251491"/>
    
    <!-- 底部矩形 -->
    <rect x="40" y="89" width="58" height="6" rx="2" fill="#251491"/>
    <rect x="40" y="97" width="58" height="12" rx="2" fill="#251491"/>
    
    <!-- 中心圆（缩小半径以显示下方内容） -->
    <circle cx="69" cy="65.5" r="22" fill="#111114" stroke="#909094"/>
    
    <!-- 中心沙漏图标（紫色渐变暗色模式） -->
    <path d="M61 55c0-1.2 1-2.2 2-2.2h14c1 0 2 1 2 2.2v2c0 0.6-0.25 1.1-0.55 1.5l-4 8 4 8c0.3 0.4 0.55 0.9 0.55 1.5v2c0 1.2-1 2.2-2 2.2H63c-1 0-2-1-2-2.2v-2c0-0.6 0.25-1.1 0.55-1.5l4-8-4-8c-0.3-0.4-0.55-0.9-0.55-1.5v-2z" fill="url(#b)"/>
  </g>
  
  <defs>
    <linearGradient id="b" x1="83.935" y1="79.863" x2="52.303" y2="48.865" gradientUnits="userSpaceOnUse">
      <stop offset="0" stop-color="#A78AFF"/>
      <stop offset="0.5" stop-color="#C084FC"/>
      <stop offset="1" stop-color="#9F7AEA"/>
    </linearGradient>
    <clipPath id="a">
      <rect width="138" height="114" rx="8" fill="#fff"/>
    </clipPath>
  </defs>
</svg>
