<?xml version="1.0" encoding="UTF-8"?>
<svg xmlns="http://www.w3.org/2000/svg"
     viewBox="0 0 162 162"
     width="162"
     height="162">

  <!-- 外框 -->
  <path
    d="M34.8 0 H127.4 A34.8 34.8 0 0 1 162 34.8 V127.4 A34.8 34.8 0 0 1 127.4 162 H34.8 A34.8 34.8 0 0 1 0 127.4 V34.8 A34.8 34.8 0 0 1 34.8 0 Z"
    fill="#000000"
  />

  <!-- K -->
  <path
    d="M38.0 53.9 L38.0 113.3 L53.9 113.3 L53.9 89.4 L73.5 113.3 L91.6 113.3 L64.5 86.1 L91.6 53.9 L73.5 53.9 L53.9 76.2 L53.9 53.9 Z"
    fill="#FFFFFF"
  />

  <!-- i -->
  <path
    d="M99.3 86.1 L99.3 113.3 L105.5 113.3 L105.5 86.1 Z
       M99.3 76.6 L99.3 80.9 L105.5 80.9 L105.5 76.6 Z"
    fill="#FFFFFF"
  />

  <!-- l -->
  <path
    d="M110.8 86.1 L110.8 113.3 L117.0 113.3 L117.0 86.1 Z"
    fill="#FFFFFF"
  />

  <!-- o -->
  <path
    d="M123.2 86.1 L142.0 86.1 L142.0 113.3 L123.2 113.3 Z"
    fill="#FFFFFF"
  />

</svg>
