<?xml version="1.0" encoding="UTF-8"?>
<svg xmlns="http://www.w3.org/2000/svg"
     viewBox="0 0 36 36"
     width="36"
     height="36">

  <!-- 外框 -->
  <path
    d="M7.73 0 H28.28 A7.73 7.73 0 0 1 36 7.73 V28.28 A7.73 7.73 0 0 1 28.28 36 H7.73 A7.73 7.73 0 0 1 0 28.28 V7.73 A7.73 7.73 0 0 1 7.73 0 Z"
    fill="#000000"
  />

  <!-- K -->
  <path
    d="M8.44 11.95 L8.44 25.16 L11.95 25.16 L11.95 19.88 L16.31 25.16 L20.32 25.16 L14.34 19.12 L20.32 11.95 L16.31 11.95 L11.95 16.88 L11.95 11.95 Z"
    fill="#FFFFFF"
  />

  <!-- i -->
  <path
    d="M22.05 19.12 L22.05 25.16 L23.44 25.16 L23.44 19.12 Z
       M22.05 16.97 L22.05 17.97 L23.44 17.97 L23.44 16.97 Z"
    fill="#FFFFFF"
  />

  <!-- l -->
  <path
    d="M24.61 19.12 L24.61 25.16 L26.05 25.16 L26.05 19.12 Z"
    fill="#FFFFFF"
  />

  <!-- o -->
  <path
    d="M27.41 19.12 L31.53 19.12 L31.53 25.16 L27.41 25.16 Z"
    fill="#FFFFFF"
  />

</svg>
