<?xml version="1.0" encoding="UTF-8"?>
<svg xmlns="http://www.w3.org/2000/svg"
     viewBox="0 0 24 24"
     width="24"
     height="24">

  <!-- 外框 -->
  <path
    d="M5.16 0 H18.88 A5.16 5.16 0 0 1 24 5.16 V18.88 A5.16 5.16 0 0 1 18.88 24 H5.16 A5.16 5.16 0 0 1 0 18.88 V5.16 A5.16 5.16 0 0 1 5.16 0 Z"
    fill="#000000"
  />

  <!-- K -->
  <path
    d="M5.63 7.97 L5.63 16.78 L7.97 16.78 L7.97 13.26 L10.88 16.78 L13.55 16.78 L9.57 12.75 L13.55 7.97 L10.88 7.97 L7.97 10.88 L7.97 7.97 Z"
    fill="#FFFFFF"
  />

  <!-- i -->
  <path
    d="M14.72 12.75 L14.72 16.78 L15.65 16.78 L15.65 12.75 Z
       M14.72 11.36 L14.72 12.0 L15.65 12.0 L15.65 11.36 Z"
    fill="#FFFFFF"
  />

  <!-- l -->
  <path
    d="M16.41 12.75 L16.41 16.78 L17.34 16.78 L17.34 12.75 Z"
    fill="#FFFFFF"
  />

  <!-- o -->
  <path
    d="M18.28 12.75 L21.06 12.75 L21.06 16.78 L18.28 16.78 Z"
    fill="#FFFFFF"
  />

</svg>

