<?xml version="1.0" encoding="UTF-8"?>
<svg xmlns="http://www.w3.org/2000/svg"
     viewBox="0 0 22 20"
     width="22"
     height="20">
  <path d="M17.856,3.912V3.666C17.856,2.561 16.961,1.666 15.856,1.666H2.677C1.935,1.666 1.333,2.268 1.333,3.01V3.01C1.333,3.752 1.935,4.354 2.677,4.354H18.5C19.604,4.354 20.5,5.25 20.5,6.354V8.557M20.5,8.557H13.908C12.804,8.557 11.908,9.453 11.908,10.557V12.256C11.908,13.361 12.804,14.256 13.908,14.256H20.5M20.5,8.557V14.256M20.5,14.256V16.333C20.5,17.437 19.605,18.333 18.5,18.333H3.333C2.229,18.333 1.333,17.437 1.333,16.333V3.01" fill="#00000000"/>
</svg>