<?xml version="1.0" encoding="UTF-8"?>
<svg
  xmlns="http://www.w3.org/2000/svg"
  viewBox="0 0 31 31"
  width="31"
  height="31"
>
  <!-- 外框 -->
  <path
    d="M6.66 0 H24.38 A6.66 6.66 0 0 1 31 6.66 V24.38 A6.66 6.66 0 0 1 24.38 31 H6.66 A6.66 6.66 0 0 1 0 24.38 V6.66 A6.66 6.66 0 0 1 6.66 0 Z"
    fill="#000000"
  />

  <!-- K -->
  <path
    d="M7.27 10.30 L7.27 21.65 L10.30 21.65 L10.30 17.13 L14.05 21.65 L17.51 21.65 L12.37 16.44 L17.51 10.30 L14.05 10.30 L10.30 14.56 L10.30 10.30 Z"
    fill="#FFFFFF"
  />

  <!-- i -->
  <path
    d="M18.97 16.44 L18.97 21.65 L20.22 21.65 L20.22 16.44 Z
       M18.97 14.63 L18.97 15.50 L20.22 15.50 L20.22 14.63 Z"
    fill="#FFFFFF"
  />

  <!-- l -->
  <path
    d="M21.20 16.44 L21.20 21.65 L22.42 21.65 L22.42 16.44 Z"
    fill="#FFFFFF"
  />

  <!-- o -->
  <path
    d="M23.63 16.44 L27.20 16.44 L27.20 21.65 L23.63 21.65 Z"
    fill="#FFFFFF"
  />
</svg>
