<?xml version="1.0" encoding="UTF-8"?>
<svg xmlns="http://www.w3.org/2000/svg"
     viewBox="0 0 96 96"
     width="96"
     height="96">
  <path d="M48,0L48,0A48,48 0,0 1,96 48L96,48A48,48 0,0 1,48 96L48,96A48,48 0,0 1,0 48L0,48A48,48 0,0 1,48 0z" fill="#000000"/>
  <path d="M31.274,71.106L31.273,71.107C30.766,71.379 30.159,71.013 30.159,70.444V28.743C30.159,28.33 30.5,27.989 30.913,27.989H61.999C62.412,27.989 62.753,28.33 62.753,28.743V70.444C62.753,71.013 62.147,71.379 61.639,71.107L61.639,71.106L47.573,63.561L47.571,63.56C46.869,63.186 46.043,63.186 45.341,63.56L45.34,63.561L31.274,71.106Z" fill="#00000000"/>
  <path d="M33.867,24H66.641V67.215" fill="#00000000"/>
</svg>