<?xml version="1.0" encoding="UTF-8"?>
<svg xmlns="http://www.w3.org/2000/svg"
     viewBox="0 0 96 96"
     width="96"
     height="96">
  <path d="M48,0L48,0A48,48 0,0 1,96 48L96,48A48,48 0,0 1,48 96L48,96A48,48 0,0 1,0 48L0,48A48,48 0,0 1,48 0z" fill="#000000"/>
  <path d="M29.53,24C28.236,24 27.188,25.048 27.188,26.341V28.683H55.871V26.341C55.871,25.048 54.823,24 53.53,24H29.53Z" fill="#545FF8" fill-rule="evenodd"/>
  <path d="M33.042,35.707C33.042,34.414 34.09,33.366 35.383,33.366H59.383C60.677,33.366 61.725,34.414 61.725,35.707V38.049H33.042V35.707ZM36.554,34.537H35.383C35.228,34.537 35.079,34.598 34.97,34.708C34.86,34.818 34.798,34.967 34.798,35.122V36.293C34.798,36.448 34.86,36.597 34.97,36.707C35.079,36.817 35.228,36.878 35.383,36.878H36.554C36.709,36.878 36.859,36.817 36.968,36.707C37.078,36.597 37.139,36.448 37.139,36.293V35.122C37.139,34.967 37.078,34.818 36.968,34.708C36.859,34.598 36.709,34.537 36.554,34.537Z" fill="#545FF8" fill-rule="evenodd"/>
  <path d="M53.173,48.627V50.575C53.173,51.127 53.62,51.575 54.173,51.575H56.018" fill="#00000000"/>
  <path d="M63.183,59.907L60.698,57.422C60.323,57.047 60.112,56.538 60.112,56.008V51.206" fill="#00000000"/>
  <path d="M51.669,56.571C51.669,61.305 55.507,65.143 60.241,65.143C64.974,65.143 68.812,61.305 68.812,56.571C68.812,51.838 64.974,48 60.241,48C57.564,48 55.174,49.227 53.602,51.149" fill="#00000000"/>
</svg>